<svg xmlns="http://www.w3.org/2000/svg" width="1200" height="630" viewBox="0 0 1200 630" fill="none">
  <!-- Black background -->
  <rect width="1200" height="630" fill="#000000"/>

  <!-- Nolte logo centered and scaled appropriately -->
  <g transform="translate(600, 315) scale(3, 3) translate(-46.5, -15.5)">
    <path d="M37.4712 29.1762C35.0381 29.1762 33.4682 26.0365 33.4682 19.9929C33.4682 13.9492 35.0381 10.8095 37.4712 10.8095C39.9043 10.8095 41.4346 13.9492 41.4346 19.9929C41.4346 26.0365 39.9043 29.1762 37.4712 29.1762ZM37.4712 9.24038C31.5454 9.24038 27.2284 14.1066 27.2284 20.0719C27.2284 26.0372 31.5454 30.746 37.4712 30.746C43.3969 30.746 47.6745 26.0365 47.6745 20.0719C47.6745 14.1073 43.3574 9.24038 37.4712 9.24038ZM0 2.72594C0.863278 3.4325 1.76608 4.41366 1.76608 6.10069V30.4714H9.69365V30.3536C6.51513 26.1544 4.5133 16.1861 4.5133 6.92445H3.17921L17.3855 30.4708H22.2122V26.7035L7.73135 2.60806H0V2.72594ZM23.4291 2.60806H15.3843V2.72594C17.8175 5.94398 20.2506 14.4603 20.6035 24.1532L20.8393 30.4714H23.4291V2.60806ZM87.0351 18.855H78.2837V20.8173H92.49C92.3721 12.8114 88.9579 9.16203 83.1888 9.27922C78.048 9.35758 73.8876 12.8897 73.8876 20.4637C73.8876 26.3894 78.283 30.7453 83.738 30.7453C87.5842 30.7453 90.6061 28.7442 92.2931 24.8979L92.0969 24.7412C90.6054 26.2327 88.408 27.2139 85.3467 27.2139C81.5794 27.2139 79.5776 24.1525 79.5776 20.4637V18.5797C79.5776 14.4984 80.5983 10.8879 83.306 10.8484C86.0137 10.8089 87.0344 14.4194 87.0344 18.5797C87.0344 19.0117 87.0344 18.3835 87.0344 18.8543L87.0351 18.855ZM68.2228 24.5457V10.8497L66.9671 11.5168H68.9682C69.7136 11.5168 71.0089 11.8697 72.1468 12.5375H72.2251V9.55517H66.9664L68.2221 10.1043V4.17791H68.0259L61.1974 10.2215V10.3394C62.4926 11.4773 62.7277 12.4979 62.7277 15.6376V25.5275C62.7277 29.0202 63.7484 30.7467 66.9269 30.7467C67.9864 30.7467 69.9882 30.5505 70.7336 30.2759V30.0401C68.34 29.4515 68.2221 27.9211 68.2221 24.5457H68.2228ZM50.7985 30.4714H57.7838V30.3931C56.9988 28.1562 57.0384 26.1544 57.0384 21.7596V0.253296H56.8421L50.0136 5.31577V5.43365C51.3088 6.57151 51.5439 8.18087 51.5439 10.7319V21.7596C51.5439 26.1939 51.5834 28.1562 50.7985 30.3931V30.4714Z" fill="white"/>
  </g>
</svg>