<svg width="230" height="70" viewBox="0 0 230 70" fill="none" xmlns="http://www.w3.org/2000/svg">
<path fill-rule="evenodd" clip-rule="evenodd" d="M23.7784 26.141C23.1606 25.4779 22.4103 24.9364 21.5277 24.5165C20.6451 24.0966 19.6521 23.8866 18.5488 23.8866C17.5337 23.8866 16.6401 24.185 15.8678 24.7817C15.0954 25.3785 14.7093 26.2515 14.7093 27.4008C14.7093 28.329 14.9961 29.0473 15.5699 29.5557C16.1436 30.064 17.1366 30.6718 18.5488 31.379C19.4756 31.8653 20.3582 32.3957 21.1967 32.9703C22.0352 33.545 22.7744 34.208 23.4144 34.9595C24.0543 35.7109 24.5728 36.5729 24.97 37.5454C25.3672 38.5178 25.5658 39.6008 25.5658 40.7943C25.5658 43.0486 25.1576 44.9604 24.3411 46.5296C23.5247 48.0988 22.4876 49.3696 21.2298 50.3421C19.972 51.3146 18.5709 52.0108 17.0262 52.4307C15.4816 52.8506 13.9811 53.0606 12.5248 53.0606C10.274 53.0606 8.13362 52.6628 6.10353 51.8671C4.07345 51.0715 2.41851 50.0106 1.13867 48.6845L6.50072 42.4519C7.2951 43.3359 8.21084 44.0542 9.24795 44.6068C10.2851 45.1593 11.3773 45.4356 12.5248 45.4356C13.5839 45.4356 14.5107 45.1262 15.3051 44.5073C16.0995 43.8885 16.4966 43.0044 16.4966 41.8551C16.4966 40.8385 16.0995 39.9876 15.3051 39.3024C14.5107 38.6173 13.4074 37.9211 11.9952 37.2138C11.1125 36.816 10.2961 36.3519 9.54584 35.8214C8.79559 35.291 8.13361 34.6722 7.55989 33.9649C6.98617 33.2577 6.53382 32.451 6.20283 31.5448C5.87184 30.6386 5.70634 29.5888 5.70634 28.3953C5.70634 26.2736 6.11456 24.4502 6.93101 22.9252C7.74746 21.4002 8.79558 20.1625 10.0754 19.2122C11.3553 18.2618 12.7785 17.5656 14.3452 17.1236C15.9119 16.6815 17.4455 16.4605 18.946 16.4605C20.9761 16.4605 22.8627 16.7699 24.6059 17.3888C26.3491 18.0076 27.7503 18.8254 28.8095 19.8421L23.7784 26.141ZM53.038 67.9128H43.5717L47.014 48.0215H46.8816C46.2196 49.3918 45.2818 50.5742 44.0682 51.5688C42.8545 52.5633 41.2548 53.0606 39.2688 53.0606C36.2237 53.0606 33.9399 51.9224 32.4173 49.6459C30.8947 47.3695 30.1335 44.4189 30.1335 40.7943C30.1335 38.0979 30.4534 35.3131 31.0933 32.4399C31.7333 29.5667 32.6711 26.9477 33.9068 24.5828C35.1425 22.2179 36.676 20.273 38.5075 18.748C40.339 17.223 42.4242 16.4605 44.7633 16.4605C46.8816 16.4605 48.4814 16.9799 49.5626 18.0187C50.6439 19.0575 51.3169 20.3504 51.5817 21.8975H51.7141L52.5084 17.5214H61.7762L53.038 67.9128ZM50.0591 30.6497C50.0591 28.8816 49.7943 27.456 49.2647 26.373C48.7351 25.2901 47.8304 24.7486 46.5506 24.7486C45.4473 24.7486 44.4764 25.2348 43.6379 26.2073C42.7994 27.1798 42.0933 28.3843 41.5195 29.8209C40.9458 31.2575 40.5155 32.8046 40.2287 34.4622C39.9418 36.1198 39.7984 37.6338 39.7984 39.0041C39.7984 40.6838 40.0632 42.054 40.5928 43.1149C41.1224 44.1758 42.0271 44.7062 43.3069 44.7062C44.4102 44.7062 45.3811 44.2311 46.2196 43.2807C47.0581 42.3303 47.7642 41.1479 48.338 39.7334C48.9117 38.3189 49.342 36.7939 49.6288 35.1584C49.9157 33.5229 50.0591 32.02 50.0591 30.6497ZM91.9625 43.5791C91.8743 44.1537 91.7639 44.8388 91.6315 45.6345C91.4992 46.4302 91.3668 47.2479 91.2344 48.0878C91.102 48.9276 90.9806 49.7012 90.8703 50.4084C90.7599 51.1157 90.6827 51.6461 90.6386 51.9997H81.5694C81.6577 51.3809 81.757 50.6073 81.8673 49.6791C81.9776 48.7508 82.099 47.8447 82.2314 46.9606H82.0328C81.1502 48.7287 79.9476 50.1874 78.425 51.3367C76.9025 52.486 75.082 53.0606 72.9637 53.0606C71.5514 53.0606 70.3599 52.8175 69.389 52.3313C68.4181 51.845 67.6347 51.2041 67.0389 50.4084C66.4431 49.6128 66.0018 48.7177 65.715 47.7231C65.4281 46.7285 65.2847 45.7229 65.2847 44.7062C65.2847 43.8664 65.3398 42.9271 65.4502 41.8883C65.5605 40.8495 65.726 39.7997 65.9467 38.7388L69.5876 17.5214H79.2525L75.5454 38.6725C75.4571 39.1146 75.3909 39.5455 75.3468 39.9655C75.3027 40.3854 75.2806 40.7722 75.2806 41.1258C75.2806 42.0541 75.4682 42.8497 75.8433 43.5128C76.2184 44.1758 76.9356 44.5073 77.9947 44.5073C79.3187 44.5073 80.4551 43.8774 81.4039 42.6176C82.3528 41.3579 83.0037 39.7334 83.3568 37.7443L86.8653 17.5214H96.5302L91.9625 43.5791ZM125.128 26.7377C125.128 28.5058 124.929 30.4508 124.532 32.5725L122.347 45.2367C122.259 45.7229 122.171 46.2975 122.083 46.9606C121.994 47.6236 121.906 48.2756 121.818 48.9166C121.73 49.5575 121.652 50.1653 121.586 50.7399C121.52 51.3146 121.487 51.7345 121.487 51.9997H113.411C113.455 51.4693 113.532 50.762 113.642 49.878C113.753 48.9939 113.874 48.2646 114.007 47.6899H113.808C113.058 49.237 112.043 50.4858 110.763 51.4361C109.483 52.3865 107.806 52.8617 105.732 52.8617C104.805 52.8617 103.889 52.6849 102.985 52.3313C102.08 51.9776 101.263 51.4472 100.535 50.7399C99.807 50.0327 99.2223 49.1376 98.7809 48.0546C98.3396 46.9716 98.119 45.7008 98.119 44.2421C98.119 41.7225 98.5603 39.5897 99.4429 37.8437C100.326 36.0977 101.506 34.6832 102.985 33.6002C104.463 32.5173 106.184 31.7327 108.148 31.2464C110.112 30.7602 112.175 30.5171 114.338 30.5171H115.992C116.213 29.5004 116.323 28.749 116.323 28.2627C116.323 25.8757 115.198 24.6823 112.947 24.6823C111.712 24.6823 110.531 24.9585 109.406 25.5111C108.28 26.0636 107.298 26.7156 106.46 27.4671L102.753 21.3007C104.297 19.842 106.107 18.6707 108.181 17.7866C110.255 16.9025 112.352 16.4605 114.47 16.4605C118.221 16.4605 120.935 17.3777 122.612 19.2122C124.289 21.0466 125.128 23.5551 125.128 26.7377ZM113.411 36.816C112.528 36.816 111.668 36.9155 110.829 37.1144C109.991 37.3133 109.251 37.6448 108.611 38.1089C107.971 38.5731 107.464 39.1588 107.089 39.866C106.714 40.5733 106.526 41.4131 106.526 42.3856C106.526 43.4465 106.78 44.2421 107.287 44.7725C107.795 45.303 108.424 45.5682 109.174 45.5682C109.968 45.5682 110.686 45.3582 111.325 44.9383C111.965 44.5184 112.517 43.9658 112.98 43.2807C113.444 42.5955 113.83 41.833 114.139 40.9932C114.448 40.1533 114.691 39.3135 114.867 38.4736L115.198 36.816H113.411ZM154.52 51.9997H145.318L146.046 47.5573H145.98C145.186 49.1044 144.171 50.4084 142.935 51.4693C141.699 52.5302 140.044 53.0606 137.97 53.0606C136.47 53.0606 135.157 52.7512 134.031 52.1323C132.906 51.5135 131.979 50.6626 131.251 49.5796C130.523 48.4966 129.971 47.1927 129.596 45.6677C129.221 44.1426 129.034 42.474 129.034 40.6617C129.034 37.9653 129.353 35.1916 129.993 32.3404C130.633 29.4893 131.582 26.8814 132.84 24.5165C134.098 22.1516 135.631 20.2178 137.441 18.7149C139.25 17.212 141.346 16.4605 143.729 16.4605C145.715 16.4605 147.216 16.9136 148.231 17.8198C149.246 18.7259 149.886 19.9083 150.151 21.3671H150.349L153.792 1.87354H163.258L154.52 51.9997ZM148.959 30.716C148.959 28.9479 148.683 27.5113 148.132 26.4062C147.58 25.3011 146.686 24.7486 145.451 24.7486C144.303 24.7486 143.31 25.2348 142.472 26.2073C141.633 27.1798 140.927 28.3843 140.353 29.8209C139.78 31.2575 139.349 32.8046 139.063 34.4622C138.776 36.1198 138.632 37.6338 138.632 39.0041C138.632 40.6838 138.908 42.054 139.46 43.1149C140.011 44.1758 140.927 44.7062 142.207 44.7062C143.266 44.7062 144.215 44.2311 145.053 43.2807C145.892 42.3303 146.598 41.1479 147.172 39.7334C147.746 38.3189 148.187 36.7939 148.496 35.1584C148.805 33.5229 148.959 32.0421 148.959 30.716ZM190.465 43.5791C190.377 44.1537 190.267 44.8388 190.134 45.6345C190.002 46.4302 189.87 47.2479 189.737 48.0878C189.605 48.9276 189.483 49.7012 189.373 50.4084C189.263 51.1157 189.186 51.6461 189.141 51.9997H180.072C180.161 51.3809 180.26 50.6073 180.37 49.6791C180.48 48.7508 180.602 47.8447 180.734 46.9606H180.536C179.653 48.7287 178.45 50.1874 176.928 51.3367C175.405 52.486 173.585 53.0606 171.467 53.0606C170.054 53.0606 168.863 52.8175 167.892 52.3313C166.921 51.845 166.138 51.2041 165.542 50.4084C164.946 49.6128 164.505 48.7177 164.218 47.7231C163.931 46.7285 163.788 45.7229 163.788 44.7062C163.788 43.8664 163.843 42.9271 163.953 41.8883C164.063 40.8495 164.229 39.7997 164.45 38.7388L168.09 17.5214H177.755L174.048 38.6725C173.96 39.1146 173.894 39.5455 173.85 39.9655C173.806 40.3854 173.783 40.7722 173.783 41.1258C173.783 42.0541 173.971 42.8497 174.346 43.5128C174.721 44.1758 175.438 44.5073 176.498 44.5073C177.822 44.5073 178.958 43.8774 179.907 42.6176C180.856 41.3579 181.507 39.7334 181.86 37.7443L185.368 17.5214H195.033L190.465 43.5791ZM228.86 28.9258C228.86 31.6222 228.54 34.3959 227.9 37.247C227.261 40.0981 226.334 42.695 225.12 45.0378C223.906 47.3805 222.395 49.3033 220.586 50.8062C218.776 52.3092 216.68 53.0606 214.297 53.0606C212.311 53.0606 210.755 52.5744 209.63 51.6019C208.504 50.6294 207.809 49.436 207.545 48.0215H207.412L203.97 67.9128H194.57L203.242 17.5214H212.377L211.649 21.8975H211.781C212.664 20.3504 213.734 19.0575 214.992 18.0187C216.25 16.9799 217.805 16.4605 219.659 16.4605C221.203 16.4605 222.549 16.7699 223.697 17.3888C224.844 18.0076 225.804 18.8696 226.576 19.9747C227.349 21.0797 227.923 22.3948 228.298 23.9198C228.673 25.4448 228.86 27.1134 228.86 28.9258ZM219.262 30.4508C219.262 28.771 218.986 27.4008 218.434 26.3399C217.882 25.279 216.967 24.7486 215.687 24.7486C214.628 24.7486 213.679 25.2238 212.84 26.1741C212.002 27.1245 211.296 28.3069 210.722 29.7214C210.148 31.1359 209.707 32.6609 209.398 34.2964C209.089 35.9319 208.935 37.4348 208.935 38.8051C208.935 40.5733 209.21 41.9988 209.762 43.0818C210.314 44.1648 211.207 44.7062 212.443 44.7062C213.546 44.7062 214.528 44.22 215.389 43.2475C216.25 42.2751 216.967 41.0705 217.54 39.6339C218.114 38.1973 218.544 36.6502 218.831 34.9926C219.118 33.335 219.262 31.8211 219.262 30.4508Z" fill="white"/>
</svg>