<?xml version="1.0" encoding="UTF-8"?>
<svg xmlns="http://www.w3.org/2000/svg" width="191" height="53" viewBox="0 0 191 53" fill="none">
  <g clip-path="url(#clip0_3662_32687)">
    <path d="M42.4835 51.2608V50.9909C46.4641 49.7765 47.4087 47.6174 47.4087 42.0848V28.5233C47.4087 22.5859 46.734 21.1015 41.6738 19.3473V19.0774C45.5196 18.875 51.052 17.2557 53.8182 16.0413H54.0881V42.0848C54.0881 47.6174 55.0327 49.7765 59.688 50.9909V51.2608H42.4835ZM61.0824 24.4751C58.721 24.4751 56.8993 22.6534 56.8993 20.2919C56.8993 17.9304 58.721 16.0413 61.0824 16.0413C63.4438 16.0413 65.3329 17.9304 65.3329 20.2919C65.3329 22.6534 63.4438 24.4751 61.0824 24.4751Z" fill="#C5FF70"></path>
    <path d="M95.4422 43.6367C94.0928 45.9981 89.37 52.0705 81.2062 52.0705C73.0425 52.0705 65.7559 45.6608 65.7559 35.4053C65.7559 23.5305 74.2569 16.0413 82.2183 16.0413C89.235 16.0413 95.0374 19.6847 95.0374 29.6028C95.0374 30.345 95.0374 30.4799 94.9699 31.2896H72.9076V32.9089C72.9076 42.0848 78.7099 47.2801 84.9845 47.2801C89.7073 47.2801 92.9458 45.121 95.0374 43.3668L95.4422 43.6367ZM88.5604 29.1305C88.5604 21.6413 85.9291 17.5931 81.6111 17.5931C77.293 17.5931 73.7172 21.7088 72.975 29.8052L88.5604 29.1305Z" fill="#C5FF70"></path>
    <path d="M128.569 43.6367C127.22 45.9981 122.497 52.0705 114.333 52.0705C106.169 52.0705 98.8828 45.6608 98.8828 35.4053C98.8828 23.5305 107.384 16.0413 115.345 16.0413C122.362 16.0413 128.164 19.6847 128.164 29.6028C128.164 30.345 128.164 30.4799 128.097 31.2896H106.035V32.9089C106.035 42.0848 111.837 47.2801 118.111 47.2801C122.834 47.2801 126.073 45.121 128.164 43.3668L128.569 43.6367ZM121.687 29.1305C121.687 21.6413 119.056 17.5931 114.738 17.5931C110.42 17.5931 106.844 21.7088 106.102 29.8052L121.687 29.1305Z" fill="#C5FF70"></path>
    <path d="M130.795 51.261V50.9911L149.754 19.0776H140.308C137.744 19.0776 136.656 18.6728 132.009 23.4632H131.739L133.089 16.8511H158.637V17.121L140.016 49.0345H150.361C152.925 49.0345 153.887 49.3673 159.267 44.7164H159.537L158.187 51.261H130.795Z" fill="#C5FF70"></path>
    <path d="M190.999 43.6367C189.649 45.9981 184.927 52.0705 176.763 52.0705C168.599 52.0705 161.312 45.6608 161.312 35.4053C161.312 23.5305 169.814 16.0413 177.775 16.0413C184.792 16.0413 190.594 19.6847 190.594 29.6028C190.594 30.345 190.594 30.4799 190.527 31.2896H168.464V32.9089C168.464 42.0848 174.267 47.2801 180.541 47.2801C185.264 47.2801 188.502 45.121 190.594 43.3668L190.999 43.6367ZM184.117 29.1305C184.117 21.6413 181.486 17.5931 177.168 17.5931C172.85 17.5931 169.274 21.7088 168.532 29.8052L184.117 29.1305Z" fill="#C5FF70"></path>
    <path d="M13.2914 47.8874C14.7082 48.8994 17.9467 50.5187 21.3876 50.5187C27.5948 50.5187 32.655 44.6488 32.655 34.2583C32.655 24.6101 27.1225 19.6847 20.7804 19.6847C17.6769 19.6847 15.113 20.6968 13.2914 21.7763V47.8874ZM13.2779 20.8317C14.9646 19.145 19.431 16.0413 25.031 16.0413C32.655 16.0413 39.9416 21.8438 39.9416 32.0993C39.9416 45.3235 29.349 52.0705 20.6455 52.0705C17.1371 52.0705 8.9059 51.2609 6.40955 50.4512V14.6694C6.40955 8.73203 5.73486 8.14728 0 6.39305V5.67337C6.79187 5.67337 11.5822 1.78257 13.0215 0.388184H13.2914L13.2779 15.686V20.8272V20.8317Z" fill="#C5FF70"></path>
  </g>
  <defs>
    <clipPath id="clip0_3662_32687">
      <rect width="191" height="51.6824" fill="white" transform="translate(0 0.388184)"></rect>
    </clipPath>
  </defs>
</svg>
