<svg xmlns="http://www.w3.org/2000/svg" width="24" height="36" viewBox="0 0 24 36" fill="none">
  <path d="M6 36C9.31371 36 12 33.3137 12 30V24H6C2.68629 24 0 26.6863 0 30C0 33.3137 2.68629 36 6 36Z" fill="#181818"/>
  <path d="M0 18C0 14.6863 2.68629 12 6 12H12V24H6C2.68629 24 0 21.3137 0 18Z" fill="#181818"/>
  <path d="M0 6C0 2.68629 2.68629 0 6 0H12V12H6C2.68629 12 0 9.31371 0 6Z" fill="#181818"/>
  <path d="M12 0H18C21.3137 0 24 2.68629 24 6C24 9.31371 21.3137 12 18 12H12V0Z" fill="#181818"/>
  <path d="M24 18C24 21.3137 21.3137 24 18 24C14.6863 24 12 21.3137 12 18C12 14.6863 14.6863 12 18 12C21.3137 12 24 14.6863 24 18Z" fill="#181818"/>
</svg>
