<?xml version="1.0" encoding="UTF-8"?>
<svg xmlns="http://www.w3.org/2000/svg" width="25" height="24" viewBox="0 0 25 24" fill="none">
  <path d="M18.5 8V6C18.5 5.46957 18.2893 4.96086 17.9142 4.58579C17.5391 4.21071 17.0304 4 16.5 4H4.5C3.96957 4 3.46086 4.21071 3.08579 4.58579C2.71071 4.96086 2.5 5.46957 2.5 6V13C2.5 13.5304 2.71071 14.0391 3.08579 14.4142C3.46086 14.7893 3.96957 15 4.5 15H12.5" stroke="white" stroke-linecap="round" stroke-linejoin="round"></path>
  <path d="M10.5 19V15.04V18.19" stroke="white" stroke-linecap="round" stroke-linejoin="round"></path>
  <path d="M7.5 19H12.5" stroke="white" stroke-linecap="round" stroke-linejoin="round"></path>
  <path d="M20.5 12H18.5C17.3954 12 16.5 12.8954 16.5 14V20C16.5 21.1046 17.3954 22 18.5 22H20.5C21.6046 22 22.5 21.1046 22.5 20V14C22.5 12.8954 21.6046 12 20.5 12Z" stroke="white" stroke-linecap="round" stroke-linejoin="round"></path>
</svg>
