<?xml version="1.0" encoding="UTF-8"?>
<svg xmlns="http://www.w3.org/2000/svg" width="25" height="24" viewBox="0 0 25 24" fill="none">
  <path d="M11.5 17L13.5 19C13.697 19.197 13.9308 19.3532 14.1882 19.4598C14.4456 19.5665 14.7214 19.6213 15 19.6213C15.2786 19.6213 15.5544 19.5665 15.8118 19.4598C16.0692 19.3532 16.303 19.197 16.5 19C16.697 18.803 16.8532 18.5692 16.9598 18.3118C17.0665 18.0544 17.1213 17.7786 17.1213 17.5C17.1213 17.2214 17.0665 16.9456 16.9598 16.6882C16.8532 16.4308 16.697 16.197 16.5 16" stroke="#F7F7F7" stroke-linecap="round" stroke-linejoin="round"></path>
  <path d="M14.5002 14L17.0002 16.5C17.3981 16.8978 17.9376 17.1213 18.5002 17.1213C19.0628 17.1213 19.6024 16.8978 20.0002 16.5C20.3981 16.1022 20.6215 15.5626 20.6215 15C20.6215 14.4374 20.3981 13.8978 20.0002 13.5L16.1202 9.62C15.5577 9.0582 14.7952 8.74264 14.0002 8.74264C13.2052 8.74264 12.4427 9.0582 11.8802 9.62L11.0002 10.5C10.6024 10.8978 10.0628 11.1213 9.50023 11.1213C8.93762 11.1213 8.39805 10.8978 8.00023 10.5C7.6024 10.1022 7.37891 9.56261 7.37891 9C7.37891 8.43739 7.6024 7.89782 8.00023 7.5L10.8102 4.69C11.7225 3.78014 12.9121 3.20055 14.1909 3.04297C15.4696 2.88539 16.7644 3.15883 17.8702 3.82L18.3402 4.1C18.766 4.35699 19.2723 4.44612 19.7602 4.35L21.5002 4" stroke="#F7F7F7" stroke-linecap="round" stroke-linejoin="round"></path>
  <path d="M22.5 14H20.5" stroke="#F7F7F7" stroke-linecap="round" stroke-linejoin="round"></path>
  <path d="M2.5 14L9 20.5C9.39782 20.8978 9.93739 21.1213 10.5 21.1213C11.0626 21.1213 11.6022 20.8978 12 20.5C12.3978 20.1022 12.6213 19.5626 12.6213 19C12.6213 18.4374 12.3978 17.8978 12 17.5" stroke="#F7F7F7" stroke-linecap="round" stroke-linejoin="round"></path>
  <path d="M3.5 4H11.5" stroke="#F7F7F7" stroke-linecap="round" stroke-linejoin="round"></path>
</svg>
