<svg xmlns="http://www.w3.org/2000/svg" width="106" height="11.29" viewBox="0 0 106 12" fill="none"><g clip-path="url(#clip0_8172_628)"><path d="M11.5962 3.40954V11.0436H13.1244V0.247971L11.5962 3.40954ZM1.52818 3.40954L0 0.247971V11.0436H1.52818V3.40954ZM0.61641 0.247971L5.76601 11.0436H7.37124L12.4823 0.247971H10.8771L7.29419 7.80489L6.60073 9.28543L2.2987 0.247971H0.61641Z" fill="black"></path><path d="M24.8994 -7.62939e-05V1.55757C27.2751 1.66553 28.906 3.22318 28.906 5.64448C28.906 8.06578 27.2879 9.62343 24.8994 9.73139V11.289C28.1355 11.1657 30.5369 8.92943 30.5369 5.64448C30.5369 2.35953 28.1355 0.123302 24.8994 -7.62939e-05ZM24.36 1.55757V-7.62939e-05C21.111 0.123302 18.7224 2.34411 18.7224 5.64448C18.7224 8.94485 21.111 11.1657 24.36 11.289V9.73139C21.9586 9.62343 20.3405 8.0812 20.3405 5.64448C20.3405 3.20776 21.9586 1.66553 24.36 1.55757Z" fill="black"></path><path d="M38.2046 0.247971V1.7902H41.9287C43.0845 1.7902 43.6881 2.39167 43.6881 3.39412C43.6881 4.39657 43.0845 5.02888 41.9287 5.02888H38.2046V6.58653H41.8645C43.0716 6.58653 43.5596 7.24969 43.5596 8.46805V11.0436H45.0878V8.14418C45.0878 6.95666 44.5228 6.01591 43.5468 5.76915C44.5741 5.38359 45.2548 4.47368 45.2548 3.10109C45.2548 1.235 43.8935 0.247971 42.0571 0.247971H38.2046ZM37.6652 11.0436V0.247971H36.137V11.0436H37.6652Z" fill="black"></path><path d="M53.3812 0.247971V1.7902H56.9512C58.1969 1.7902 58.7748 2.45336 58.7748 3.48665C58.7748 4.51994 58.1969 5.1831 56.9512 5.1831H53.3812V6.72533H57.1439C58.9032 6.72533 60.3543 5.63035 60.3543 3.47123C60.3543 1.31211 58.8904 0.247971 57.1439 0.247971H53.3812ZM52.8418 11.0436V0.247971H51.3137V11.0436H52.8418Z" fill="black"></path><path d="M74.0732 0.247971V11.0436H75.6142V0.247971H74.0732ZM73.5338 6.27808V4.72043H67.832V6.27808H73.5338ZM67.2927 11.0436V0.247971H65.7516V11.0436H67.2927Z" fill="black"></path><path d="M86.1618 9.73268V11.2903C88.9099 11.1824 90.5922 9.56303 90.5922 6.74076V0.247971H89.0512V6.43231C89.0512 8.51432 88.0238 9.62472 86.1618 9.73268ZM85.6224 11.2903V9.73268C83.7603 9.62472 82.7458 8.51432 82.7458 6.43231V0.247971H81.2177V6.74076C81.2177 9.56303 82.8871 11.1824 85.6224 11.2903Z" fill="black"></path><path d="M101.31 9.74681V11.289C104.392 11.2119 105.997 9.8085 105.997 7.83445C105.997 6.27679 104.996 5.13555 102.71 4.84252L100.231 4.51865C98.639 4.31816 98.1767 3.87092 98.1767 3.13065C98.1767 2.39038 98.8959 1.60384 100.771 1.54215V-7.62939e-05C97.9712 0.0770351 96.5972 1.60384 96.5972 3.28487C96.5972 4.9659 97.5731 5.87582 99.8718 6.18426L102.299 6.50813C103.737 6.6932 104.354 7.04791 104.354 7.97325C104.354 8.89858 103.429 9.68512 101.31 9.74681ZM101.31 -7.62939e-05V1.54215C103.134 1.65011 103.917 2.57545 104.02 3.54705H105.689C105.522 1.63469 104.123 0.10788 101.31 -7.62939e-05ZM100.771 11.289V9.74681C98.6647 9.63885 97.8942 8.3588 97.8428 7.29467H96.1862C96.2504 9.33041 97.5603 11.1811 100.771 11.289Z" fill="black"></path></g><defs><clipPath id="clip0_8172_628"><rect width="106" height="11.2891" fill="white"></rect></clipPath></defs></svg>
