<svg width="203" height="55" viewBox="0 0 203 55" fill="none" xmlns="http://www.w3.org/2000/svg">
<g clip-path="url(#clip0_2_110)">
<path d="M27.2446 0.5466C17.4556 0.5466 9.3974 8.1701 8.55783 17.8572H13.0438C13.8631 10.6665 19.9203 5.0633 27.2446 5.0633C35.1272 5.0633 41.54 11.5525 41.54 19.5291C41.54 27.5056 35.1272 33.9948 27.2446 33.9948C25.7996 33.9948 24.404 33.7784 23.0873 33.3684V38.0423C24.4265 38.3475 25.8176 38.5115 27.2446 38.5115C37.5874 38.5115 46.0034 29.9951 46.0034 19.5291C46.0034 9.06297 37.5874 0.5466 27.2446 0.5466Z" fill="#DFD4D7"/>
<path d="M12.9471 19.8821V19.8639V19.5291H12.6162H8.81669H8.48581V19.8616V19.8639V19.8821C8.47681 25.2142 5.03972 30.5031 0 32.7444V37.5777C4.63231 35.9946 7.11053 33.5848 8.48581 31.0361V54.2118V54.2141V54.5466H8.81669H12.6184H12.9493V54.2118V31.0383C14.3223 33.5848 16.8006 35.9969 21.4351 37.5799V32.7466C16.3932 30.5031 12.9561 25.2142 12.9471 19.8821Z" fill="#DFD4D7"/>
<path d="M75.4382 13.8757C75.4382 18.8525 71.8638 21.6906 66.7543 21.6906H61.8361V33.2386H58.4171V6.02219H66.7543C71.8661 6.02219 75.4382 8.89894 75.4382 13.8757ZM61.8361 18.5018H66.7543C69.829 18.5018 71.9809 16.7912 71.9809 13.8757C71.9809 10.8828 69.829 9.21098 66.7543 9.21098H61.8361V18.5018Z" fill="#DFD4D7"/>
<path d="M75.1929 23.7907C75.1929 18.1534 79.1882 13.9145 84.4912 13.9145C89.756 13.9145 93.56 18.2695 93.56 23.6358C93.56 24.3738 93.5218 24.8407 93.5218 24.8407H78.4971C78.7267 28.1844 81.5336 30.6739 84.7591 30.6739C87.5637 30.6739 88.9862 29.3141 90.177 27.4464L92.8668 28.8472C91.3294 31.6852 88.4865 33.6691 84.7208 33.6691C79.1882 33.6669 75.1929 29.5465 75.1929 23.7907ZM90.2152 22.0801C89.8686 19.0872 87.4872 16.83 84.4125 16.83C81.376 16.83 78.8798 19.5132 78.5714 22.0801H90.2152Z" fill="#DFD4D7"/>
<path d="M99.1917 33.2386H95.8874V14.3427H99.1917V17.0646C100.344 15.1992 102.343 13.9145 105.148 13.9145C109.913 13.9145 112.679 17.1421 112.679 22.1576V33.2386H109.375V22.5471C109.375 19.1647 107.646 17.0259 104.457 17.0259C101.267 17.0259 99.1917 19.5154 99.1917 23.3625V33.2386V33.2386Z" fill="#DFD4D7"/>
<path d="M114.898 23.7907C114.898 18.1534 118.894 13.9145 124.197 13.9145C129.462 13.9145 133.266 18.2695 133.266 23.6358C133.266 24.3738 133.227 24.8407 133.227 24.8407H118.203C118.432 28.1844 121.239 30.6739 124.465 30.6739C127.269 30.6739 128.692 29.3141 129.882 27.4464L132.572 28.8472C131.035 31.6852 128.192 33.6691 124.426 33.6691C118.894 33.6669 114.898 29.5465 114.898 23.7907ZM129.921 22.0801C129.574 19.0872 127.193 16.83 124.118 16.83C121.081 16.83 118.585 19.5132 118.277 22.0801H129.921Z" fill="#DFD4D7"/>
<path d="M138.947 6.02219V33.2386H135.642V6.02219H138.947Z" fill="#DFD4D7"/>
<path d="M160.886 23.7907C160.886 29.2732 156.735 33.6669 151.126 33.6669C145.517 33.6669 141.366 29.2732 141.366 23.7907C141.366 18.3082 145.517 13.9145 151.126 13.9145C156.735 13.9145 160.886 18.3082 160.886 23.7907ZM144.709 23.7907C144.709 27.5626 147.475 30.5942 151.126 30.5942C154.777 30.5942 157.544 27.5626 157.544 23.7907C157.544 20.0188 154.777 16.9872 151.126 16.9872C147.475 16.9872 144.709 20.0188 144.709 23.7907Z" fill="#DFD4D7"/>
<path d="M184.633 23.7907C184.633 18.1534 188.628 13.9145 193.931 13.9145C199.196 13.9145 203 18.2695 203 23.6358C203 24.3738 202.962 24.8407 202.962 24.8407H187.937C188.167 28.1844 190.974 30.6739 194.199 30.6739C197.004 30.6739 198.426 29.3141 199.617 27.4464L202.307 28.8472C200.769 31.6852 197.927 33.6691 194.161 33.6691C188.628 33.6669 184.633 29.5465 184.633 23.7907ZM199.657 22.0801C199.311 19.0872 196.929 16.83 193.855 16.83C190.818 16.83 188.322 19.5132 188.014 22.0801H199.657Z" fill="#DFD4D7"/>
<path d="M173.061 13.9145C167.452 13.9145 163.301 18.3082 163.301 23.7907V41.3268H166.567V30.4006C167.949 32.4642 170.509 33.6669 173.061 33.6669C178.67 33.6669 182.821 29.2732 182.821 23.7907C182.821 18.3082 178.67 13.9145 173.061 13.9145ZM173.061 30.5942C169.41 30.5942 166.644 27.5603 166.644 23.7907C166.644 20.0188 169.41 16.9872 173.061 16.9872C176.712 16.9872 179.478 20.0188 179.478 23.7907C179.478 27.5626 176.712 30.5942 173.061 30.5942Z" fill="#DFD4D7"/>
</g>
<defs>
<clipPath id="clip0_2_110">
<rect width="203" height="54" fill="white" transform="translate(0 0.5466)"/>
</clipPath>
</defs>
</svg>
