<svg xmlns="http://www.w3.org/2000/svg" width="169" height="30" viewBox="0 0 169 30" fill="none"><path d="M12.854 5.59481C13.6389 5.82794 14.4361 5.98745 15.2456 6.09788C15.4541 6.12242 15.6626 6.14696 15.8588 6.1715C15.8711 6.09788 15.8833 6.01199 15.8956 5.93837C15.9814 5.41076 16.0796 4.87087 16.1654 4.34325C16.3616 3.15305 16.5701 1.95058 16.9503 0.809458C17.0239 0.600866 17.0975 0.392273 17.1711 0.183681C16.6805 0.11006 16.1777 0.0609801 15.6871 0.0364399C15.5645 0.0241697 15.4418 0.0241699 15.3314 0.0241699C15.2456 0.711297 15.0739 1.38615 14.8286 2.0242C14.4852 2.94446 14.0437 3.82791 13.504 4.66228C13.3078 4.96903 13.087 5.27578 12.854 5.59481Z" fill="white"></path><path d="M15.615 8.40516C15.6396 8.02479 15.6641 7.64441 15.7131 7.26404C15.1735 7.21496 14.6461 7.12907 14.1188 7.03091C13.4442 6.90821 12.7697 6.73642 12.1197 6.52783C11.997 6.67507 11.8621 6.82232 11.7272 6.96956C10.8564 7.92663 9.87526 8.77327 8.79598 9.48493C8.48937 9.69353 8.1705 9.88985 7.83936 10.0739C8.03559 10.9573 8.10917 11.8899 8.03559 12.7856C8.01106 13.1537 7.962 13.5341 7.88841 13.9022C8.07238 13.8776 8.24408 13.8531 8.42805 13.8286C10.9177 13.485 13.3829 13.0065 15.8113 12.3684C15.615 11.0555 15.5414 9.73034 15.615 8.40516Z" fill="white"></path><path d="M6.80773 17.1408C6.73415 17.3126 6.64829 17.4721 6.57471 17.6317C6.91811 17.7544 7.26152 17.8893 7.59266 18.0488C8.72099 18.5765 9.77573 19.2758 10.6833 20.1225C10.7078 20.147 10.7446 20.1716 10.7692 20.1961C12.3758 18.0734 13.9211 15.8893 15.3193 13.6316C12.7805 14.2574 10.2173 14.7236 7.61719 15.0304C7.39643 15.7543 7.12661 16.4537 6.80773 17.1408Z" fill="white"></path><path d="M16.9612 6.24611C17.697 6.27065 18.4452 6.25838 19.181 6.19703C19.4999 5.42401 19.7943 4.65099 20.0764 3.85343C20.3707 2.98225 20.6528 2.0988 20.8368 1.19081C20.7264 1.14173 20.6037 1.09265 20.4933 1.04357C19.782 0.761359 19.0461 0.528227 18.2857 0.356445C17.8688 1.38714 17.6235 2.49145 17.415 3.58349C17.3169 4.1111 17.231 4.65099 17.1451 5.17861C17.0838 5.54671 17.0225 5.89027 16.9612 6.24611Z" fill="white"></path><path d="M17.5399 7.36201C17.2946 7.36201 17.0616 7.34974 16.8163 7.33747C16.6814 8.61356 16.6569 9.88965 16.7795 11.1535C17.4786 9.90192 18.1163 8.62583 18.705 7.3252C18.3126 7.34974 17.9201 7.36201 17.5399 7.36201Z" fill="white"></path><path d="M20.4321 6.03729C21.6095 5.8287 22.7624 5.49741 23.8784 5.03114C24.4181 4.79801 24.9455 4.54034 25.4483 4.25812C24.8105 3.63235 24.1115 3.05565 23.3511 2.55258C22.885 2.23355 22.3944 1.95134 21.8671 1.6814C21.5482 3.10473 21.0576 4.49126 20.518 5.85324C20.4812 5.90232 20.4567 5.97594 20.4321 6.03729Z" fill="white"></path><path d="M20.7494 7.09165C20.4796 7.14073 20.2098 7.17754 19.9399 7.21435C19.572 8.08553 19.1673 8.94444 18.7503 9.79107C18.3946 10.4905 18.0267 11.1776 17.6465 11.8525C19.6824 11.2512 21.6815 10.5518 23.6438 9.72972C25.1401 9.09168 26.5995 8.39228 28.0345 7.61926C27.9486 7.47202 27.8628 7.32478 27.7769 7.18981C27.3354 6.46587 26.8203 5.7542 26.2193 5.07935C25.692 5.3861 25.1401 5.66831 24.5759 5.91371C23.3495 6.4536 22.074 6.87078 20.7494 7.09165Z" fill="white"></path><path d="M17.0857 13.1657C17.3065 14.1351 17.6008 15.0799 17.981 16.0001C18.5084 17.2394 19.1829 18.4051 19.9924 19.4849C20.0292 19.5339 20.0782 19.5953 20.115 19.6444C20.7528 18.6137 21.5009 17.6443 22.3226 16.7486C23.3528 15.632 24.5057 14.6259 25.7689 13.7915C26.9831 12.994 28.2831 12.3314 29.6445 11.816C29.5341 11.3375 29.4115 10.859 29.252 10.3927C29.0558 9.79146 28.8105 9.19022 28.5407 8.61353C27.6577 9.09206 26.7746 9.53379 25.867 9.95097C23.034 11.2639 20.0905 12.3314 17.0857 13.1657Z" fill="white"></path><path d="M29.8523 12.9082C29.6806 12.9696 29.4967 13.0432 29.325 13.1168C27.9146 13.718 26.59 14.4911 25.3758 15.4113C24.1494 16.3684 23.0578 17.4727 22.1012 18.6997C21.6597 19.2764 21.255 19.8776 20.8748 20.5034C21.6842 21.3746 22.5795 22.1721 23.5239 22.9084C24.4192 23.5955 25.3513 24.2335 26.2834 24.8593C26.8598 24.209 27.3749 23.5096 27.8287 22.7734C28.3806 21.8777 28.8467 20.8838 29.2146 19.8163C29.5457 18.8347 29.791 17.7672 29.9137 16.6383C30.0486 15.4236 30.024 14.1598 29.8523 12.9082Z" fill="white"></path><path d="M17.5901 17.7298C17.0259 16.6255 16.5599 15.4598 16.2287 14.2573C14.7815 16.5764 13.1871 18.8095 11.5437 20.9814C11.7645 21.2268 11.9852 21.4844 12.1937 21.7544C12.6598 22.3433 13.1013 22.9691 13.4938 23.6194C13.8985 24.2943 14.2541 25.006 14.5608 25.7299C15.1495 25.5827 15.7504 25.4722 16.3514 25.4231C16.6457 25.3986 16.9401 25.3863 17.2344 25.3863C17.4061 25.3863 17.5778 25.3863 17.7373 25.3986C17.8599 24.8464 18.0071 24.3066 18.1788 23.7667C18.5344 22.6869 18.9882 21.6439 19.5279 20.6501C18.7797 19.7421 18.1297 18.7727 17.5901 17.7298Z" fill="white"></path><path d="M17.5274 26.4912C17.4293 26.4912 17.3434 26.4912 17.2453 26.4912C16.816 26.4912 16.3991 26.5157 15.9698 26.5771C15.6264 26.6262 15.2953 26.6875 14.9641 26.7734C15.0622 27.0311 15.1481 27.2888 15.2339 27.5464C15.4915 28.344 15.7 29.1661 15.8839 29.9882C16.4113 29.9514 16.951 29.89 17.5029 29.8041C17.4661 29.6569 17.4415 29.5219 17.417 29.3747C17.3312 28.7489 17.3312 28.1231 17.3925 27.4851C17.417 27.1415 17.4661 26.8225 17.5274 26.4912Z" fill="white"></path><path d="M23.6088 24.3431C22.4436 23.4842 21.3153 22.5762 20.3096 21.521C20.1011 21.9259 19.9049 22.3431 19.7209 22.7603C19.353 23.656 19.0587 24.5763 18.8379 25.5211C19.4634 25.6315 20.0643 25.8155 20.653 26.0364C21.3644 26.3186 22.0634 26.6499 22.7257 27.0548C22.9342 27.1775 23.1427 27.3125 23.3512 27.4475C23.3635 27.4352 23.388 27.4229 23.4003 27.4107C24.1607 26.8953 24.872 26.3186 25.522 25.6683C25.4975 25.6438 25.4607 25.6315 25.4362 25.6069C24.8107 25.2143 24.1975 24.7848 23.6088 24.3431Z" fill="white"></path><path d="M18.6157 26.6021C18.5789 26.8106 18.5421 27.007 18.5176 27.2156C18.444 27.8536 18.4072 28.4917 18.4808 29.1297C18.5053 29.2769 18.5298 29.4242 18.5666 29.5714C19.8544 29.2524 21.1176 28.7616 22.295 28.099C21.7431 27.7677 21.179 27.461 20.5903 27.2033C19.9525 26.9456 19.2902 26.737 18.6157 26.6021Z" fill="white"></path><path d="M8.48677 23.1543L8.4745 23.1666C8.44996 23.2034 8.42542 23.2279 8.40088 23.2647C8.43769 23.2279 8.46223 23.1911 8.48677 23.1543Z" fill="white"></path><path d="M9.94889 21.2523C9.99795 21.191 10.0347 21.1419 10.0838 21.0806C9.80172 20.8106 9.50737 20.5529 9.1885 20.3075C8.44036 19.7431 7.64317 19.2768 6.78466 18.8965C6.53937 18.7983 6.29408 18.7001 6.03653 18.6143C5.58275 19.4118 5.09217 20.1848 4.55253 20.9333C3.93931 21.8045 3.27703 22.6389 2.61475 23.4732C2.77418 23.7064 2.95815 23.9518 3.15438 24.2094C3.79213 25.0315 4.51574 25.7923 5.31293 26.4671C5.37425 26.5162 5.42331 26.5653 5.48463 26.6144C6.57617 25.5592 7.54506 24.3689 8.46489 23.1665C8.98 22.5284 9.45831 21.8904 9.94889 21.2523Z" fill="white"></path><path d="M13.4896 26.0493C12.95 24.8345 12.2754 23.6812 11.466 22.6259C11.2697 22.3682 11.0612 22.1228 10.8405 21.8774C10.7301 22.0124 10.632 22.1474 10.5216 22.2824C9.36875 23.7793 8.25268 25.3131 6.95265 26.6873C6.75642 26.8837 6.57245 27.0922 6.37622 27.2763C6.89133 27.6444 7.44323 27.9757 7.99513 28.2702C8.3508 28.4542 8.71873 28.6383 9.08667 28.7978C9.09893 28.7855 9.11119 28.7855 9.11119 28.7733C9.46686 28.442 9.84706 28.1229 10.2273 27.8285C10.7546 27.4113 11.3065 27.0432 11.9075 26.7241C12.4349 26.4787 12.95 26.2456 13.4896 26.0493Z" fill="white"></path><path d="M13.3084 27.3005C12.499 27.6564 11.7386 28.0858 11.0272 28.6257C10.7697 28.822 10.5121 29.0306 10.2668 29.2515C10.5121 29.3374 10.7574 29.411 11.0027 29.4723C12.0207 29.7545 13.0999 29.9263 14.2283 29.9877C14.4 29.9999 14.5717 29.9999 14.7556 29.9999C14.5226 29.0061 14.2528 28.0245 13.9094 27.0674C13.7009 27.141 13.5047 27.2269 13.3084 27.3005Z" fill="white"></path><path d="M4.36615 14.233C4.81993 14.1962 5.27372 14.1594 5.71524 14.1226C6.05864 14.0981 6.40205 14.0612 6.73319 14.0244C6.79451 13.7668 6.84357 13.4968 6.88036 13.2392C6.96621 12.4907 6.97848 11.7545 6.88036 11.006C6.85583 10.871 6.84357 10.736 6.80678 10.6011C6.05864 10.9692 5.27372 11.2637 4.47653 11.5091C3.11517 11.914 1.6925 12.1471 0.282083 12.1471C0.122645 12.9447 0.0245289 13.7545 0 14.5643C1.01795 14.5398 2.0359 14.4539 3.04159 14.3557C3.49537 14.3067 3.93689 14.2698 4.36615 14.233Z" fill="white"></path><path d="M3.94733 17.0068C4.4747 17.0805 4.98981 17.1664 5.50492 17.3013C5.70115 16.921 5.87285 16.5406 6.04455 16.1479C6.17946 15.8166 6.30211 15.4853 6.42475 15.1541C6.26531 15.1663 6.10588 15.1909 5.93417 15.2031C5.13698 15.2768 4.33979 15.3381 3.5426 15.4117C2.74541 15.4853 1.94823 15.5712 1.13877 15.6203C0.770837 15.6449 0.402903 15.6571 0.0227051 15.6694C0.047234 16.1479 0.0840272 16.6387 0.157614 17.1173C0.182143 17.1173 0.206672 17.105 0.218936 17.105C0.954804 16.9823 1.69067 16.9087 2.4388 16.9087C2.94165 16.9087 3.44449 16.9455 3.94733 17.0068Z" fill="white"></path><path d="M4.94512 18.3074C4.61398 18.2338 4.27057 18.1602 3.92717 18.1111C3.42433 18.0498 2.90922 18.0129 2.40638 18.0129C1.89127 18.0129 1.37616 18.0498 0.861054 18.1111C0.689352 18.1356 0.51765 18.1602 0.345947 18.197C0.358212 18.2338 0.358211 18.2829 0.370476 18.3197C0.591236 19.3504 0.95917 20.3933 1.44975 21.4486C1.60919 21.7921 1.79315 22.1357 1.98938 22.4915C2.22241 22.2093 2.44317 21.9148 2.66393 21.6326C3.49791 20.5651 4.27057 19.4608 4.94512 18.3074Z" fill="white"></path><path d="M9.31042 3.87736C9.9727 4.36817 10.684 4.77308 11.4444 5.0921C11.5548 5.14118 11.6529 5.17799 11.7633 5.2148C11.7633 5.20253 11.7756 5.20253 11.7756 5.19026C12.4992 4.24546 13.1247 3.22704 13.603 2.12273C13.8851 1.43561 14.1058 0.736208 14.2162 0C14.1917 0 14.1671 0 14.1426 0C13.0265 0.0736208 11.9227 0.257673 10.8803 0.564426C9.87458 0.85891 8.88116 1.26382 7.91227 1.79144C7.81415 1.84052 7.71604 1.90187 7.61792 1.95095C7.75283 2.18408 7.9 2.41721 8.0717 2.63808C8.42737 3.11661 8.84437 3.52153 9.31042 3.87736Z" fill="white"></path><path d="M6.06096 6.3801C6.42889 6.83409 6.76003 7.31263 7.02985 7.82797C7.21382 8.19608 7.38552 8.57645 7.5327 8.95683C8.07233 8.6378 8.5997 8.28197 9.10255 7.9016C9.78936 7.36171 10.4271 6.7482 11.0158 6.09789C10.93 6.06108 10.8441 6.02427 10.7705 5.98746C9.7403 5.53346 8.77141 4.93222 7.94969 4.14694C7.54496 3.75429 7.17703 3.32484 6.87042 2.8463C6.80909 2.74814 6.74777 2.64998 6.68645 2.53955C6.20814 2.87084 5.72982 3.22668 5.26377 3.63159C4.95716 3.88926 4.66281 4.17148 4.3562 4.47823C4.98169 5.0672 5.53359 5.71751 6.06096 6.3801Z" fill="white"></path><path d="M5.66836 9.9141C5.96271 9.7914 6.25706 9.64416 6.5514 9.49692C6.49008 9.31287 6.42876 9.12882 6.35517 8.94477C6.08535 8.33126 5.75421 7.75456 5.34949 7.21468C4.82212 6.53982 4.25795 5.87723 3.6202 5.30054C3.4485 5.49686 3.27679 5.71772 3.09283 5.96312C2.45508 6.79749 1.90317 7.71775 1.43713 8.69936C1.08146 9.44784 0.799374 10.2331 0.578613 11.0307C1.05693 11.0184 1.53524 10.9816 2.00129 10.9203C3.25226 10.7485 4.49098 10.4049 5.66836 9.9141Z" fill="white"></path><path d="M52.6903 13.1807C54.5184 14.0482 56.8998 15.4219 56.8998 17.9042C56.8998 18.6272 56.7795 20.025 55.9857 21.2059C55.0957 22.5313 53.7006 23.182 51.7762 23.182C49.7316 23.182 47.3502 22.1939 46.6046 19.9527C46.5805 19.8804 46.6046 19.8081 46.6767 19.7599L48.8897 17.856C48.9859 17.7837 49.1303 17.7837 49.2024 17.9042C49.2505 18.0247 49.3467 18.2175 49.467 18.4585C49.8278 19.2056 50.6938 19.9527 51.6559 19.9527C52.4016 19.9527 53.4119 19.543 53.4119 18.3862C53.4119 17.2776 51.8965 16.651 50.9584 16.2896C49.8759 15.8557 48.7694 15.3014 47.8313 14.482C46.8451 13.5663 46.364 12.5541 46.364 11.3491C46.364 8.33664 49.1303 6.81836 51.7522 6.81836C53.8208 6.81836 55.3603 7.90285 56.3706 10.0477C56.4187 10.1441 56.3706 10.2646 56.2984 10.3128L54.1576 11.807C54.0614 11.8552 54.0133 11.8552 53.917 11.7347C53.0992 10.5538 52.3776 9.99951 51.4154 9.99951C50.9103 9.99951 49.7316 10.1923 49.7316 11.084C49.7316 12.1685 51.7281 12.7228 52.6903 13.1807ZM48.3124 19.8322C48.9138 21.0372 50.5735 21.7361 51.9206 21.7361C53.6765 21.7361 55.0957 20.5311 55.2881 18.6995C55.5287 16.4582 53.7727 15.4942 52.0408 14.6266L51.2711 14.2892C49.4911 13.494 48.1921 12.8915 48.1921 11.2286C48.1921 9.39702 49.8759 8.55354 51.5357 8.55354C53.0511 8.55354 53.8449 9.44523 54.2538 9.99951C54.3981 10.1923 54.6387 10.0236 54.4944 9.83082C54.0854 9.32472 53.2195 8.26434 51.5357 8.26434C49.6354 8.26434 47.9035 9.20422 47.9035 11.2286C47.9035 13.0361 49.3467 13.735 51.1749 14.5785L51.9206 14.94C54.3019 16.0726 55.1679 17.133 54.9754 18.6754C54.6146 21.1336 52.7384 21.4469 51.9206 21.4469C50.1165 21.4469 48.9138 20.3624 48.553 19.6876C48.4327 19.5671 48.2643 19.6876 48.3124 19.8322ZM60.7003 22.941C60.5801 22.941 60.5079 22.8446 60.5079 22.7242V7.25216C60.5079 7.13166 60.5801 7.03526 60.7003 7.03526H68.8788C68.9991 7.03526 69.0953 7.13166 69.0953 7.25216V9.83082C69.0953 9.95132 68.9991 10.0477 68.8788 10.0477H63.6831V13.3253H67.7242C67.8445 13.3253 67.9166 13.4217 67.9166 13.5421V16.169C67.9166 16.2896 67.8445 16.3859 67.7242 16.3859H63.6831V19.9286H68.8788C68.9991 19.9286 69.0953 20.025 69.0953 20.1455V22.7242C69.0953 22.8446 68.9991 22.941 68.8788 22.941H60.7003ZM61.9031 8.55354V21.3746C61.9031 21.5192 61.9993 21.5674 62.0955 21.5674H67.6279C67.8445 21.5674 67.7963 21.2782 67.6279 21.2782H62.2158V14.9881H66.6417C66.7861 14.9881 66.7861 14.6507 66.6417 14.6507H62.2158V8.67404H67.6279C67.7963 8.67404 67.8445 8.36074 67.6279 8.36074H62.0955C61.9993 8.36074 61.9031 8.43304 61.9031 8.55354ZM80.6894 17.374V16.6269C80.6894 16.5064 80.7856 16.41 80.9059 16.41H83.6481C83.7684 16.41 83.8646 16.5064 83.8646 16.6269V18.1452C83.8646 21.6879 81.9643 23.182 78.3802 23.182C75.0367 23.182 72.8478 21.8566 72.8478 18.1452V11.807C72.8478 8.24024 74.7961 6.81836 78.3802 6.81836C81.7718 6.81836 83.8646 8.11974 83.8646 11.807V12.3131C83.8646 12.4336 83.7684 12.53 83.6481 12.53H80.8819C80.7616 12.53 80.6653 12.4336 80.6653 12.3131V11.9275C80.6653 10.602 79.6791 10.0477 78.5005 10.0477H78.2118C77.418 10.0477 76.8889 10.2646 76.528 10.7466C76.1913 11.2045 76.071 11.807 76.071 12.6023V17.374C76.071 19.4707 77.2497 19.9286 78.2118 19.9286H78.5005C80.0159 19.9286 80.6413 18.9164 80.6894 17.374ZM78.3321 8.31254C75.7583 8.31254 74.2669 9.22833 74.2669 12.1685V17.9765C74.2669 20.6515 75.638 21.6397 78.3321 21.6397C80.8578 21.6397 82.3732 20.7239 82.3732 17.9524C82.3732 17.7596 82.0845 17.7596 82.0845 17.9524C82.0845 20.3865 80.7616 21.3746 78.3321 21.3746C75.9748 21.3746 74.5315 20.5552 74.5315 17.9765V12.1685C74.5315 9.66212 75.7102 8.57763 78.3321 8.57763C81.7478 8.57763 81.8681 10.7466 81.8681 10.9876C81.8681 11.2045 82.2048 11.2286 82.2048 10.9876C82.2048 8.98733 80.1843 8.31254 78.3321 8.31254ZM95.579 17.374V7.25216C95.579 7.13166 95.6752 7.03526 95.7955 7.03526H98.5375C98.6577 7.03526 98.7544 7.13166 98.7544 7.25216V18.1452C98.7544 21.6156 96.8539 23.182 93.2698 23.182C89.8781 23.182 87.7614 21.8324 87.7614 18.1452V7.25216C87.7614 7.13166 87.8576 7.03526 87.9779 7.03526H90.7441C90.8644 7.03526 90.9606 7.13166 90.9606 7.25216V17.374C90.9606 19.4707 92.1392 19.9286 93.1255 19.9286H93.4141C94.9055 19.9286 95.579 18.9164 95.579 17.374ZM89.2528 8.57763V17.9524C89.2528 20.1214 90.7201 21.6879 93.0052 21.6879H93.6066C95.8917 21.6879 97.383 20.0491 97.383 17.9524V8.57763C97.383 8.36074 97.0944 8.33664 97.0944 8.57763V17.9524C97.0944 19.9286 95.6752 21.3746 93.6066 21.3746H93.0052C90.9846 21.3746 89.5414 20.0732 89.5414 17.9524V8.57763C89.5414 8.36074 89.2528 8.36074 89.2528 8.57763ZM112.104 16.651C111.768 17.3499 111.286 17.8801 110.613 18.1934L112.633 22.6519C112.705 22.7964 112.609 22.941 112.465 22.941H109.506C109.41 22.941 109.362 22.8929 109.338 22.8206L107.462 18.7236H106.235V22.7242C106.235 22.8446 106.139 22.941 106.018 22.941H103.252C103.156 22.941 103.084 22.8446 103.084 22.7242V7.25216C103.084 7.13166 103.156 7.03526 103.252 7.03526H108.256C110.925 7.03526 112.537 8.55353 112.537 11.3732V14.4098C112.537 15.2532 112.393 16.0485 112.104 16.651ZM109.386 13.6627V12.0962C109.386 10.4092 108.761 10.2405 106.933 10.2405H106.235V15.5665H106.933C108.448 15.5665 109.338 15.5425 109.386 13.6627ZM104.84 21.471V17.3499H108.304L110.324 21.5192C110.373 21.6397 110.661 21.5914 110.589 21.3746L108.568 17.2776C110.445 17.0125 111.094 16.0244 111.094 14.2411V11.2286C111.094 8.57763 108.689 8.36074 107.943 8.36074H104.695C104.647 8.36074 104.551 8.43304 104.551 8.50534V21.471C104.551 21.6397 104.84 21.6397 104.84 21.471ZM110.805 11.2286V14.2411C110.805 16.6992 109.242 17.0366 107.726 17.0366H104.84V8.67404H107.943C110.541 8.67404 110.805 10.4333 110.805 11.2286ZM116.987 22.941C116.867 22.941 116.795 22.8446 116.795 22.7242V7.25216C116.795 7.13166 116.867 7.03526 116.987 7.03526H125.166C125.286 7.03526 125.382 7.13166 125.382 7.25216V9.83082C125.382 9.95132 125.286 10.0477 125.166 10.0477H119.97V13.3253H124.011C124.131 13.3253 124.203 13.4217 124.203 13.5421V16.169C124.203 16.2896 124.131 16.3859 124.011 16.3859H119.97V19.9286H125.166C125.286 19.9286 125.382 20.025 125.382 20.1455V22.7242C125.382 22.8446 125.286 22.941 125.166 22.941H116.987ZM118.19 8.55354V21.3746C118.19 21.5192 118.286 21.5674 118.383 21.5674H123.915C124.131 21.5674 124.083 21.2782 123.915 21.2782H118.503V14.9881H122.929C123.073 14.9881 123.073 14.6507 122.929 14.6507H118.503V8.67404H123.915C124.083 8.67404 124.131 8.36074 123.915 8.36074H118.383C118.286 8.36074 118.19 8.43304 118.19 8.55354ZM137.973 17.374V16.6269C137.973 16.5064 138.069 16.41 138.189 16.41H140.932C141.052 16.41 141.148 16.5064 141.148 16.6269V18.1452C141.148 21.6879 139.248 23.182 135.663 23.182C132.32 23.182 130.131 21.8566 130.131 18.1452V11.807C130.131 8.24024 132.079 6.81836 135.663 6.81836C139.055 6.81836 141.148 8.11974 141.148 11.807V12.3131C141.148 12.4336 141.052 12.53 140.932 12.53H138.165C138.045 12.53 137.949 12.4336 137.949 12.3131V11.9275C137.949 10.602 136.962 10.0477 135.784 10.0477H135.495C134.701 10.0477 134.172 10.2646 133.811 10.7466C133.474 11.2045 133.354 11.807 133.354 12.6023V17.374C133.354 19.4707 134.533 19.9286 135.495 19.9286H135.784C137.299 19.9286 137.925 18.9164 137.973 17.374ZM135.615 8.31254C133.042 8.31254 131.55 9.22833 131.55 12.1685V17.9765C131.55 20.6515 132.921 21.6397 135.615 21.6397C138.141 21.6397 139.656 20.7239 139.656 17.9524C139.656 17.7596 139.368 17.7596 139.368 17.9524C139.368 20.3865 138.045 21.3746 135.615 21.3746C133.258 21.3746 131.815 20.5552 131.815 17.9765V12.1685C131.815 9.66212 132.994 8.57763 135.615 8.57763C139.031 8.57763 139.151 10.7466 139.151 10.9876C139.151 11.2045 139.488 11.2286 139.488 10.9876C139.488 8.98733 137.468 8.31254 135.615 8.31254ZM150.385 7.03526C153.054 7.03526 154.666 8.55353 154.666 11.3732V14.4098C154.666 16.9884 153.078 18.7236 150.385 18.7236H148.364V22.7242C148.364 22.8446 148.268 22.941 148.147 22.941H145.381C145.285 22.941 145.213 22.8446 145.213 22.7242V7.25216C145.213 7.13166 145.285 7.03526 145.381 7.03526H150.385ZM151.515 13.6868V12.0962C151.515 10.4333 150.746 10.2646 149.062 10.2646H148.364V15.5665H149.062C150.385 15.5665 151.515 15.3255 151.515 13.6868ZM153.223 14.2411V11.2286C153.223 8.57763 151.178 8.36074 150.072 8.36074H146.825C146.776 8.36074 146.68 8.43304 146.68 8.50534V21.471C146.68 21.6397 146.969 21.6397 146.969 21.471V17.374H149.855C151.972 17.374 153.223 16.6269 153.223 14.2411ZM146.969 8.67404H150.072C152.742 8.67404 152.91 10.4333 152.91 11.2286V14.2411C152.91 16.6992 151.371 17.0366 149.855 17.0366H146.969V8.67404ZM163.037 17.1571C162.917 17.1571 162.821 17.0607 162.821 16.9402V14.3616C162.821 14.2411 162.917 14.1446 163.037 14.1446H168.546C168.666 14.1446 168.762 14.2411 168.762 14.3616V18.1452C168.762 21.6879 166.862 23.182 163.278 23.182C159.934 23.182 157.745 21.8566 157.745 18.1452V11.807C157.745 8.31254 159.694 6.81836 163.278 6.81836C166.646 6.81836 168.762 8.11974 168.762 11.807V12.3131C168.762 12.4336 168.666 12.53 168.546 12.53H165.779C165.659 12.53 165.563 12.4336 165.563 12.3131V11.9998C165.563 10.5297 164.625 10.0477 163.398 10.0477H163.109C162.315 10.0477 161.787 10.2646 161.426 10.7466C161.089 11.2045 160.968 11.807 160.968 12.6023V17.374C160.968 19.4707 162.099 19.9286 163.109 19.9286H163.398C164.865 19.9286 165.563 18.9164 165.563 17.374V17.1571H163.037ZM159.212 17.9765C159.212 20.6515 160.512 21.6397 163.254 21.6397C166.14 21.6397 167.319 20.4347 167.319 17.4704V15.6629C167.319 15.5906 167.271 15.4942 167.223 15.4942H163.879C163.663 15.4942 163.711 15.8075 163.879 15.8075H167.03V17.4704C167.03 20.0491 166.044 21.3746 163.254 21.3746C160.944 21.3746 159.501 20.5552 159.501 17.9765V12.1685C159.501 9.68622 160.632 8.57763 163.254 8.57763C165.202 8.57763 166.982 9.66212 166.838 11.325C166.838 11.5178 167.102 11.566 167.15 11.3491C167.15 9.22832 165.226 8.31254 163.254 8.31254C160.848 8.31254 159.212 9.18013 159.212 12.1685V17.9765Z" fill="white"></path></svg>