<?xml version="1.0" encoding="UTF-8" standalone="no"?>
<!-- Created with Inkscape (http://www.inkscape.org/) -->

<svg
   xmlns:dc="http://purl.org/dc/elements/1.1/"
   xmlns:cc="http://creativecommons.org/ns#"
   xmlns:rdf="http://www.w3.org/1999/02/22-rdf-syntax-ns#"
   xmlns:svg="http://www.w3.org/2000/svg"
   xmlns="http://www.w3.org/2000/svg"
   xmlns:sodipodi="http://sodipodi.sourceforge.net/DTD/sodipodi-0.dtd"
   xmlns:inkscape="http://www.inkscape.org/namespaces/inkscape"
   width="197.41101mm"
   height="30.13591mm"
   viewBox="0 0 699.48783 106.78078"
   id="svg2"
   version="1.1"
   inkscape:version="0.91 r13725"
   sodipodi:docname="AM New York.svg">
  <title
     id="title6256">AM New York</title>
  <defs
     id="defs4">
    <clipPath
       id="clipPath3350"
       clipPathUnits="userSpaceOnUse">
      <path
         inkscape:connector-curvature="0"
         id="path3352"
         d="m 52.5,836 750,0 0,-834 -750,0 0,834 z" />
    </clipPath>
    <clipPath
       id="clipPath3358"
       clipPathUnits="userSpaceOnUse">
      <path
         inkscape:connector-curvature="0"
         id="path3360"
         d="m 36,816 610.7,0 0,-95 -610.7,0 0,95 z" />
    </clipPath>
    <clipPath
       id="clipPath3366"
       clipPathUnits="userSpaceOnUse">
      <path
         inkscape:connector-curvature="0"
         id="path3368"
         d="m 0,92.167 593.563,0 L 593.563,0 0,0 0,92.167 Z" />
    </clipPath>
    <clipPath
       id="clipPath3402"
       clipPathUnits="userSpaceOnUse">
      <path
         inkscape:connector-curvature="0"
         id="path3404"
         d="m 256.9,598.5 301.2,0 0,-366.3 -301.2,0 0,366.3 z" />
    </clipPath>
    <clipPath
       id="clipPath3410"
       clipPathUnits="userSpaceOnUse">
      <path
         inkscape:connector-curvature="0"
         id="path3412"
         d="m 52.5,836 750,0 0,-834 -750,0 0,834 z" />
    </clipPath>
    <clipPath
       id="clipPath3422"
       clipPathUnits="userSpaceOnUse">
      <path
         inkscape:connector-curvature="0"
         id="path3424"
         d="m 36,693.5 678,0 0,-552 -678,0 0,552 z" />
    </clipPath>
    <clipPath
       id="clipPath3430"
       clipPathUnits="userSpaceOnUse">
      <path
         inkscape:connector-curvature="0"
         id="path3432"
         d="m 52.5,836 750,0 0,-834 -750,0 0,834 z" />
    </clipPath>
    <clipPath
       id="clipPath3442"
       clipPathUnits="userSpaceOnUse">
      <path
         inkscape:connector-curvature="0"
         id="path3444"
         d="m 633.9,810.5 64.2,0 0,-69.6 -64.2,0 0,69.6 z" />
    </clipPath>
    <clipPath
       id="clipPath3450"
       clipPathUnits="userSpaceOnUse">
      <path
         inkscape:connector-curvature="0"
         id="path3452"
         d="m 52.5,836 750,0 0,-834 -750,0 0,834 z" />
    </clipPath>
    <clipPath
       id="clipPath3462"
       clipPathUnits="userSpaceOnUse">
      <path
         inkscape:connector-curvature="0"
         id="path3464"
         d="m 52.5,836 750,0 0,-834 -750,0 0,834 z" />
    </clipPath>
    <clipPath
       id="clipPath3476"
       clipPathUnits="userSpaceOnUse">
      <path
         inkscape:connector-curvature="0"
         id="path3478"
         d="m 52.5,836 750,0 0,-834 -750,0 0,834 z" />
    </clipPath>
    <clipPath
       id="clipPath3488"
       clipPathUnits="userSpaceOnUse">
      <path
         inkscape:connector-curvature="0"
         id="path3490"
         d="m 52.5,836 750,0 0,-834 -750,0 0,834 z" />
    </clipPath>
    <clipPath
       id="clipPath3500"
       clipPathUnits="userSpaceOnUse">
      <path
         inkscape:connector-curvature="0"
         id="path3502"
         d="m 52.5,836 750,0 0,-834 -750,0 0,834 z" />
    </clipPath>
    <clipPath
       id="clipPath3514"
       clipPathUnits="userSpaceOnUse">
      <path
         inkscape:connector-curvature="0"
         id="path3516"
         d="m 52.5,836 750,0 0,-834 -750,0 0,834 z" />
    </clipPath>
    <clipPath
       id="clipPath3532"
       clipPathUnits="userSpaceOnUse">
      <path
         inkscape:connector-curvature="0"
         id="path3534"
         d="m 52.5,836 750,0 0,-834 -750,0 0,834 z" />
    </clipPath>
    <clipPath
       id="clipPath3546"
       clipPathUnits="userSpaceOnUse">
      <path
         inkscape:connector-curvature="0"
         id="path3548"
         d="m 52.5,836 750,0 0,-834 -750,0 0,834 z" />
    </clipPath>
    <clipPath
       id="clipPath3560"
       clipPathUnits="userSpaceOnUse">
      <path
         inkscape:connector-curvature="0"
         id="path3562"
         d="m 52.5,836 750,0 0,-834 -750,0 0,834 z" />
    </clipPath>
    <clipPath
       id="clipPath3568"
       clipPathUnits="userSpaceOnUse">
      <path
         inkscape:connector-curvature="0"
         id="path3570"
         d="m 36,129.4 678,0 0,-108.4 -678,0 0,108.4 z" />
    </clipPath>
    <clipPath
       id="clipPath3576"
       clipPathUnits="userSpaceOnUse">
      <path
         inkscape:connector-curvature="0"
         id="path3578"
         d="m 0,0 675.432,0 0,108 L 0,108 0,0 Z" />
    </clipPath>
    <clipPath
       id="clipPath3584"
       clipPathUnits="userSpaceOnUse">
      <path
         inkscape:connector-curvature="0"
         id="path3586"
         d="M 0,108 0,0 l 675.432,0 0,108 L 0,108 Z" />
    </clipPath>
    <clipPath
       id="clipPath3598"
       clipPathUnits="userSpaceOnUse">
      <path
         inkscape:connector-curvature="0"
         id="path3600"
         d="M 0,108 0,0 l 675.432,0 0,108 L 0,108 Z" />
    </clipPath>
    <clipPath
       id="clipPath3606"
       clipPathUnits="userSpaceOnUse">
      <path
         inkscape:connector-curvature="0"
         id="path3608"
         d="m 0,108 675.432,0 0,-108 L 0,0 0,108 Z" />
    </clipPath>
    <clipPath
       id="clipPath3614"
       clipPathUnits="userSpaceOnUse">
      <path
         inkscape:connector-curvature="0"
         id="path3616"
         d="m 0,0 675.432,0 0,108 L 0,108 0,0 Z" />
    </clipPath>
    <clipPath
       id="clipPath3642"
       clipPathUnits="userSpaceOnUse">
      <path
         inkscape:connector-curvature="0"
         id="path3644"
         d="m 0,108 675.432,0 0,-108 L 0,0 0,108 Z" />
    </clipPath>
  </defs>
  <sodipodi:namedview
     id="base"
     pagecolor="#ffffff"
     bordercolor="#666666"
     borderopacity="1.0"
     inkscape:pageopacity="0.0"
     inkscape:pageshadow="2"
     inkscape:zoom="1.5146434"
     inkscape:cx="399.76437"
     inkscape:cy="35.524948"
     inkscape:document-units="px"
     inkscape:current-layer="layer1"
     showgrid="false"
     fit-margin-top="0"
     fit-margin-left="0"
     fit-margin-right="0"
     fit-margin-bottom="0"
     inkscape:window-width="1366"
     inkscape:window-height="705"
     inkscape:window-x="-8"
     inkscape:window-y="-8"
     inkscape:window-maximized="1" />
  <metadata
     id="metadata7">
    <rdf:RDF>
      <cc:Work
         rdf:about="">
        <dc:format>image/svg+xml</dc:format>
        <dc:type
           rdf:resource="http://purl.org/dc/dcmitype/StillImage" />
        <dc:title>AM New York</dc:title>
      </cc:Work>
    </rdf:RDF>
  </metadata>
  <g
     inkscape:label="Layer 1"
     inkscape:groupmode="layer"
     id="layer1"
     transform="translate(28.162876,-64.703136)">
    <path
       inkscape:connector-curvature="0"
       id="path3372"
       style="fill:#00adef;fill-opacity:1;fill-rule:nonzero;stroke:none"
       d="m 182.75502,170.36591 c -0.37475,0 -0.37475,-0.37559 -0.37475,-80.423612 0,-15.444206 -7.11905,-24.860017 -22.85496,-24.860017 -11.42631,0 -20.23173,3.765376 -23.97803,12.99517 -2.43587,-6.967961 -8.80425,-12.806783 -19.85698,-12.806783 -12.7391,0 -20.231721,5.085273 -23.229711,11.488072 l 0,-9.982158 -33.53177,0 0,103.589328 34.468642,0 0,-68.36919 c 0,-3.766565 2.248493,-7.344739 6.182177,-7.344739 3.371562,0 4.870552,2.259463 4.870552,5.837639 l 0,69.87629 35.4008,0 c 0.0177,-0.19313 0.0318,-0.34005 0.0424,-0.37204 0.45135,-1.51657 0.34529,-3.58054 -0.85792,-4.7239 -1.19613,-1.14335 -0.21094,-5.44901 -0.21094,-5.44901 0.57037,-0.6635 0.91566,-3.23102 0.91566,-3.23102 0,-0.85071 0.56919,-1.99288 0.56919,-1.99288 0.72004,-2.17771 -3.07459,-2.54619 -1.83367,-4.74641 0.69882,-1.25236 0.38064,-2.65756 1.017,-3.84358 l -0.008,-0.0841 c -0.16616,-1.39217 0.41953,-2.91941 1.40944,-3.83173 -0.18738,-0.79975 -0.68115,-0.94667 -0.94984,-1.66468 -0.88973,-2.45377 0.0141,-5.74285 2.08705,-8.14686 0.66582,-0.78317 1.40943,-1.52013 2.19075,-2.19904 0,0 0.2899,-5.41465 0.81077,-7.77364 0,0 0.6564,-1.04501 0.39243,-4.84238 -0.0519,-0.70616 -0.14495,-1.39217 -0.1367,-2.09833 0.0165,-2.17771 0.35707,-4.34357 0.82256,-6.45967 0.17323,-0.79857 0.37357,-1.59596 0.57862,-2.38505 0.1096,-0.41114 0.21212,-0.82701 0.3229,-1.23578 0.10842,-0.3827 0.30286,-0.7417 0.34175,-1.14454 0.0212,-0.32227 -0.0636,-0.64217 -0.11431,-0.95497 -0.15791,-0.94786 -0.5032,-1.76302 -0.90152,-2.62676 -0.002,0 -0.30168,-0.887432 0.17441,-2.438369 l 0.37947,-1.008287 c -0.0636,-0.293837 -0.24041,-0.475115 -0.3995,-0.719189 -0.16498,-0.255923 -0.20034,-0.568717 -0.12256,-0.857814 0.12256,-0.508291 0.36296,-1.024875 0.53148,-1.513023 -0.54916,-0.16706 -3.60018,-1.171793 -2.80708,-2.82581 l 0.31583,-0.340045 c 0.18502,-0.930088 0.0153,-1.515392 -0.1532,-2.047379 -0.11903,-0.369666 -0.45017,-0.54739 -0.28283,-1.016581 0.15791,-0.469191 0.69293,-0.745255 1.1101,-0.928903 0.0118,-0.0071 1.31163,-0.587674 3.26786,-0.912316 -0.0483,-0.383884 -0.18502,-1.245252 -0.39478,-1.665865 l -0.0424,-0.06398 -0.0495,-0.125591 c -0.34647,-0.741701 -0.58805,-1.712074 -0.0848,-2.513016 l 0.066,-0.129146 0.0837,-0.06635 c 0.15556,-0.189573 0.35354,-0.369666 0.63284,-0.524878 l 0.11195,-1.710889 0.35353,0.05569 0.23098,-0.119668 0.17795,-0.234595 0.013,-0.02133 c 0.0613,-0.16706 0.099,-0.354263 0.1261,-0.543835 l 0.0354,-0.497627 0,-0.353078 c 0,0 0.82845,-1.847144 1.23266,-2.432448 1.30927,-4.803284 1.46718,1.069898 2.40877,2.018944 0.17794,0.180093 0.29815,0.37559 0.40774,0.584119 l 0,0.0047 0.0684,0.140995 c 0.0707,0.158766 0.13906,0.330566 0.24041,0.516584 l 0.45606,0.817529 0.94394,1.123215 c 0,0 -0.18619,2.245246 -1.98334,4.111346 l -0.013,0.02251 -0.88856,0.765398 0.12256,0.74644 c 1.15371,0.148103 2.35691,0.456158 3.54598,1.007102 0.4372,0.194311 0.69175,0.606631 0.70589,1.093594 0.0177,0.405211 -0.41717,0.614925 -0.39242,0.937197 0.046,0.511845 0.0978,1.024875 0.14612,1.539089 0.0471,0.492888 0.46785,0.772507 0.46785,1.302124 -0.0589,0.151658 -0.1037,0.360187 -0.22862,0.509475 0,0 -0.73653,1.479848 -3.91011,1.861362 0.11077,0.468006 0.42777,1.764205 0.68939,2.217994 0,0 0.76953,0.486963 0.70707,1.100703 0.0471,0.349524 0,0.735777 0.0142,1.069898 l 0.0141,0.23578 -0.005,0.125592 c 0,0.212083 -0.009,0.430091 -0.0236,0.636251 0.27459,1.357811 -0.41599,1.633871 -1.1431,2.526051 -0.85791,1.07345 -0.61279,2.83647 -0.62811,4.10897 -0.006,1.92298 0.22508,3.83884 0.22508,5.76537 0,2.44192 -0.18973,4.74759 -0.62812,7.13976 -0.30993,1.66705 -0.72592,3.93954 0.24277,5.48693 0.5032,0.30924 1.32694,0.39928 1.52845,1.0853 0.55977,-0.57464 1.27863,-1.10426 2.18015,-1.48459 l -1.98217,-8.07696 3.76399,7.57222 c 0.74832,-0.11018 1.57795,-0.12085 2.5054,-0.006 l 4.88705,-7.5663 -2.70102,8.03312 c 0.84613,0.24171 1.7559,0.61493 2.73402,1.06871 l 8.77006,-4.61252 -7.16854,5.92768 c 0.0896,0.14455 0.17559,0.29265 0.26397,0.47512 l 0.0966,0.13981 8.22326,-0.2891 -7.48437,1.85307 0.317,0.86966 0.0978,0.42654 0.0577,0.2417 0.0789,0.38862 0,0.31872 c 0.005,0.18128 0,0.36019 -0.0353,0.5154 l 4.97073,1.17061 -5.70844,0 -0.046,0.0604 -0.59041,1.00948 -0.25337,0.43838 c -0.34528,0.62559 -0.54209,1.46208 -1.03468,1.73814 -1.499,0.86492 -0.35825,2.76065 -1.499,3.77367 -0.37003,0.33175 -0.66464,0.57583 -0.79427,1.04502 -0.17206,0.61255 0.21801,1.21918 0.49495,1.72629 0.30993,0.56516 0.48788,1.12558 0.48788,1.77368 0.0118,0.859 -0.39596,1.89099 -0.15556,2.63506 0.26162,0.79975 1.37172,1.07463 1.48603,2.40401 0,0.009 0.0507,0.59004 0.53267,1.17179 0,0 1.89967,2.47273 2.26381,3.15519 1.03468,1.60663 1.75354,3.0841 1.9963,4.33647 l 0.11549,0.53554 c 0.21448,0.91231 0.65286,2.2097 1.14075,3.545 l 0.16262,0.46563 c 0.29933,0.8045 0.59984,1.609 0.89799,2.3507 l 1.26566,3.1386 0.19208,2.49169 8.28926,0 z" />
    <path
       d="m 55.434098,170.36591 c -1.498995,-0.75473 -1.68637,-12.99754 -1.68637,-22.03776 0,-8.85065 0,-19.39916 0.187375,-26.17873 0,-9.41818 0.187374,-21.47141 0,-29.5697 C 52.998231,76.193578 41.759302,64.703136 15.720151,64.703136 c -21.7307176,0 -34.657195,9.606569 -38.21613,21.660987 -1.498995,5.650435 -2.061119,11.489257 -1.873744,16.386147 l 32.4087017,0 c 0,-2.44904 0.3747488,-3.954953 0.7494977,-6.215601 0.7494976,-3.202585 2.6220636,-4.332908 5.8074286,-4.332908 3.37156,0 5.05793,1.695485 5.432679,5.085272 0.374749,2.071076 0.374749,5.085277 0.374749,7.722697 -4.495808,0 -8.618045,0.37677 -12.7391031,0.75355 -24.3527809,3.20258 -34.2812679,13.7499 -35.5928889,28.62895 -0.374748,4.89688 -0.187374,13.18355 -0.187374,15.4442 1.311621,17.89087 14.799043,21.47142 25.4770273,21.47142 9.3663636,0 18.1717827,-2.26065 23.4170877,-8.28786 0,1.13032 0.560944,7.34592 0.560944,7.34592 l 34.095072,0 z m -34.843391,-44.8267 0,5.65043 c 0,3.20259 0,6.59237 -0.749497,9.41818 -0.936872,3.76656 -3.747489,4.70732 -6.556926,4.70732 -4.1210588,0 -6.5569261,-2.44785 -6.5569261,-7.15754 0,-3.57699 0.3747488,-6.96796 2.9979905,-9.41581 2.2473146,-2.07226 5.2453046,-2.82699 7.1178706,-3.0142 0.749498,-0.18838 2.810616,-0.18838 3.747488,-0.18838"
       style="fill:#00adef;fill-opacity:1;fill-rule:nonzero;stroke:none"
       id="path3376"
       inkscape:connector-curvature="0" />
    <path
       inkscape:connector-curvature="0"
       id="path3380"
       style="fill:#231f20;fill-opacity:1;fill-rule:nonzero;stroke:none"
       d="m 447.40004,86.117195 c 0,0 -13.86571,24.480875 -14.8945,28.913305 0.38064,-4.32698 -3.61903,-28.913305 -3.61903,-28.913305 l -20.02432,0 -6.17275,0 -19.39384,0 c 0,0 -12.88759,45.479545 -14.44197,54.343225 1.55438,-8.86368 1.59563,-54.343225 1.59563,-54.343225 l -24.68511,0 c 0,0 -15.02884,45.479545 -16.58322,54.343225 1.55438,-8.86368 3.86298,-54.343225 3.86298,-54.343225 l -23.29807,0 -2.89782,0 -50.6288,0 -14.76722,84.205575 53.77763,0 3.34917,-19.09939 -28.33714,0 2.46179,-14.03426 26.44808,0 3.23839,-18.46433 -26.44807,0 2.29445,-13.08522 28.08613,0 0.59158,-3.37438 0.2793,68.05758 29.34472,0 c 0,0 11.57479,-30.81258 13.47446,-40.20233 -0.74714,9.28548 -0.37593,40.20233 -0.37593,40.20233 l 30.10011,0 25.49117,-73.698539 10.15946,42.043549 -5.5517,31.65499 25.94487,0 5.6448,-32.18342 32.17066,-52.022155 -26.19589,0 z" />
    <path
       d="m 671.32495,86.117195 -26.82636,0 -21.77078,30.073255 5.27241,-30.073255 -25.4405,0 -14.76722,84.205575 25.44049,0 4.18352,-23.84817 3.36567,-4.1149 6.80911,27.96307 28.84034,0 -12.27126,-47.79943 27.16458,-36.406145 z"
       style="fill:#231f20;fill-opacity:1;fill-rule:nonzero;stroke:none"
       id="path3384"
       inkscape:connector-curvature="0" />
    <path
       inkscape:connector-curvature="0"
       id="path3388"
       style="fill:#231f20;fill-opacity:1;fill-rule:nonzero;stroke:none"
       d="m 499.31536,128.32545 c -1.75708,10.02481 -3.15473,15.82809 -4.83167,20.36597 -0.91094,2.32108 -3.06162,4.53789 -6.33655,4.53789 -3.52712,0 -4.81281,-2.00591 -4.89059,-4.43244 -0.0707,-3.904 0.53502,-10.23452 2.33216,-20.47142 0.99815,-5.69783 3.33857,-16.88258 4.46753,-19.73209 1.31044,-3.16586 2.866,-4.85423 6.7714,-4.85423 3.77813,0 4.8847,1.58293 5.08504,4.74878 0.22037,3.06041 -1.61685,14.24516 -2.59732,19.83754 m 28.54926,-24.90267 c -0.52441,-10.65751 -9.03286,-18.149164 -28.05195,-18.149164 -20.78088,0 -29.67351,8.33525 -34.51225,19.415744 -1.94916,4.64215 -3.51062,11.39565 -5.6012,23.31974 -1.83367,10.44661 -3.3692,19.20484 -2.51953,25.8529 1.32694,11.81746 9.00104,17.62192 27.51457,17.62192 17.50478,0 27.40734,-4.74878 33.5306,-17.41102 3.18065,-6.64806 5.09564,-15.4051 7.09312,-26.80195 2.33216,-13.29493 2.77997,-20.15388 2.54664,-23.84817" />
    <path
       d="m 567.12603,113.65861 c -0.31465,1.79383 -1.38822,4.3258 -2.07762,5.38148 -0.72593,1.26658 -2.99563,2.00472 -4.75978,2.00472 0,0 -6.31534,0.10545 -6.56753,0.10545 0.22273,-1.26657 2.83183,-16.14443 2.83183,-16.14443 l 6.17275,0 c 2.39108,0 4.03974,1.37202 4.49934,3.0604 0.2298,0.8436 0.27104,3.48221 -0.099,5.59238 m 23.6351,-20.576871 c -2.98385,-4.536699 -9.35929,-6.964407 -18.04922,-6.964407 l -38.03347,0 -14.7684,84.205578 24.81002,0 5.62712,-32.07798 5.16282,0 3.69327,32.07798 26.32198,0 -6.16921,-37.35401 c 2.81297,-0.95023 5.70137,-3.0604 8.38235,-6.85895 2.21079,-3.27131 4.13992,-7.80919 5.32544,-14.56151 1.44243,-8.23099 0.5197,-14.456066 -2.3027,-18.466701"
       style="fill:#231f20;fill-opacity:1;fill-rule:nonzero;stroke:none"
       id="path3392"
       inkscape:connector-curvature="0" />
    <path
       inkscape:connector-curvature="0"
       id="path3396"
       style="fill:#231f20;fill-opacity:1;fill-rule:nonzero;stroke:none"
       d="m 228.33048,86.128837 -5.84867,33.344553 -8.38354,-33.344553 -21.53627,0 -7.37242,42.039993 0,42.1644 16.40764,0 5.7379,-32.71067 8.49431,32.71067 21.78846,0 14.76722,-84.204393 -24.05463,0 z" />
  </g>
</svg>
