<svg viewBox="0 0 800 400" xmlns="http://www.w3.org/2000/svg">
<rect width="800" height="400" fill="#050505"/>
<line x1="80" y1="60" x2="80" y2="340" stroke="rgba(255,255,255,0.06)"/>
<line x1="60" y1="340" x2="740" y2="340" stroke="rgba(255,255,255,0.08)"/>
<line x1="60" y1="260" x2="740" y2="260" stroke="rgba(255,255,255,0.04)"/>
<line x1="60" y1="180" x2="740" y2="180" stroke="rgba(255,255,255,0.04)"/>
<line x1="60" y1="100" x2="740" y2="100" stroke="rgba(255,255,255,0.04)"/>
<text x="55" y="344" font-size="9" fill="rgba(255,255,255,0.2)" font-family="monospace" text-anchor="end">0</text>
<text x="55" y="264" font-size="9" fill="rgba(255,255,255,0.2)" font-family="monospace" text-anchor="end">5</text>
<text x="55" y="184" font-size="9" fill="rgba(255,255,255,0.2)" font-family="monospace" text-anchor="end">10</text>
<text x="55" y="104" font-size="9" fill="rgba(255,255,255,0.2)" font-family="monospace" text-anchor="end">15</text>
<polygon points="100,280 160,260 220,240 280,220 340,200 400,210 460,190 520,180 580,170 640,160 700,150 700,340 100,340" fill="rgba(214,63,24,0.06)"/>
<polyline points="100,280 160,260 220,240 280,220 340,200 400,210 460,190 520,180 580,170 640,160 700,150" fill="none" stroke="#D63F18" stroke-width="2"/>
<circle cx="100" cy="280" r="3" fill="#D63F18"/>
<circle cx="160" cy="260" r="3" fill="#D63F18"/>
<circle cx="220" cy="240" r="3" fill="#D63F18"/>
<circle cx="280" cy="220" r="3" fill="#D63F18"/>
<circle cx="340" cy="200" r="3" fill="#D63F18"/>
<circle cx="400" cy="210" r="3" fill="#D63F18"/>
<circle cx="460" cy="190" r="3" fill="#D63F18"/>
<circle cx="520" cy="180" r="3" fill="#D63F18"/>
<circle cx="580" cy="170" r="3" fill="#D63F18"/>
<circle cx="640" cy="160" r="3" fill="#D63F18"/>
<circle cx="700" cy="150" r="3" fill="#D63F18"/>
<text x="400" y="370" font-size="11" fill="rgba(255,255,255,0.3)" font-family="monospace" text-anchor="middle">weekly throughput</text>
</svg>
