<svg viewBox="0 0 800 400" xmlns="http://www.w3.org/2000/svg">
<rect width="800" height="400" fill="#050505"/>
<line x1="80" y1="60" x2="80" y2="340" stroke="rgba(255,255,255,0.06)"/>
<line x1="200" y1="60" x2="200" y2="340" stroke="rgba(255,255,255,0.06)"/>
<line x1="320" y1="60" x2="320" y2="340" stroke="rgba(255,255,255,0.06)"/>
<line x1="440" y1="60" x2="440" y2="340" stroke="rgba(255,255,255,0.06)"/>
<line x1="560" y1="60" x2="560" y2="340" stroke="rgba(255,255,255,0.06)"/>
<line x1="680" y1="60" x2="680" y2="340" stroke="rgba(255,255,255,0.06)"/>
<line x1="60" y1="120" x2="740" y2="120" stroke="rgba(255,255,255,0.06)"/>
<line x1="60" y1="200" x2="740" y2="200" stroke="rgba(255,255,255,0.06)"/>
<line x1="60" y1="280" x2="740" y2="280" stroke="rgba(255,255,255,0.06)"/>
<polyline points="80,180 160,260 200,140 280,300 320,170 400,290 440,120 520,270 560,150 640,280 680,160 740,250" fill="none" stroke="rgba(255,255,255,0.15)" stroke-width="1.5" stroke-dasharray="6,6"/>
<polygon points="80,220 160,210 200,205 280,198 320,192 400,186 440,182 520,178 560,175 640,172 680,170 740,168 740,192 680,194 640,196 560,199 520,202 440,206 400,210 320,216 280,222 200,229 160,234 80,240" fill="rgba(214,63,24,0.06)"/>
<polyline points="80,230 160,222 200,217 280,210 320,204 400,198 440,194 520,190 560,187 640,184 680,182 740,180" fill="none" stroke="#D63F18" stroke-width="2"/>
<text x="720" y="256" font-size="11" fill="rgba(255,255,255,0.2)" font-family="monospace" text-anchor="end">estimate</text>
<text x="720" y="175" font-size="11" fill="rgba(214,63,24,0.6)" font-family="monospace" text-anchor="end">forecast</text>
</svg>
